# xmcd
#
# Track frame offsets:
#	150
#	18674
#	36260
#	56670
#	71691
#	89253
#	106986
#	126399
#	141236
#	156628
#	176096
#
# Disc length: 2674 seconds
#
# Revision: 0
# Processed by: cddbd v1.5.2PL0 Copyright (c) Steve Scherf et al.
# Submitted via: EasyCDDAExtractor 12.0.0.1
#
DISCID=a50a700b
DTITLE=飞儿乐团 - 让我们一起微笑吧
DYEAR=2009
DGENRE=Pop
TTITLE0=Find My Way
TTITLE1=I Am Here
TTITLE2=向日葵盛开的夏天
TTITLE3=纪念日
TTITLE4=冲浪季节
TTITLE5=红潮
TTITLE6=荆棘里的花
TTITLE7=让我们一起微笑吧
TTITLE8=猫头鹰的梦
TTITLE9=We Are ...
TTITLE10=Hero
EXTD=
EXTT0=
EXTT1=
EXTT2=
EXTT3=
EXTT4=
EXTT5=
EXTT6=
EXTT7=
EXTT8=
EXTT9=
EXTT10=
PLAYORDER=
